<svg xmlns="http://www.w3.org/2000/svg" viewBox="0 0 1253.41 454.35"><defs><style>.cls-1{fill:#434343;}.cls-1,.cls-10,.cls-2,.cls-3,.cls-4,.cls-5,.cls-6,.cls-7,.cls-8,.cls-9{fill-rule:evenodd;}.cls-2{fill:#eaeae9;}.cls-3{fill:#794989;}.cls-4{fill:#75351c;}.cls-5{fill:#c58358;}.cls-6{fill:#f8d4b3;}.cls-7{fill:#5e3a2f;}.cls-8{fill:#cd5c60;}.cls-9{fill:#6da9cc;}.cls-10{fill:#452319;}</style></defs><g id="Layer_2" data-name="Layer 2"><g id="Layer_1-2" data-name="Layer 1"><path class="cls-1" d="M0,446.31c.81-4.11,1.71-8.2,2.4-12.33a84.4,84.4,0,0,1,2.36-11.06c1.34-4.37,1.8-9,2.65-13.51,1.07-5.71,1.64-11.49,3.43-17.07,1.27-4,5.85-23.57,6.41-26a73,73,0,0,1,13.63-28.83A63.23,63.23,0,0,1,50.45,321.1c6.56-3.66,13.68-5.57,20.87-7.47,6.27-1.66,12.35-4,18.51-6.08,6.62-2.21,13.19-4.61,19.88-6.56,2.65-.77,5.22-2,8.06-2.11,1,4.87,3,9.35,5,13.86a87.2,87.2,0,0,0,26.81,34.56,92.05,92.05,0,0,0,35.84,16.5,6.26,6.26,0,0,0,3.21-.23c7.39-2.28,14.62-4.81,21.4-8.67a99.62,99.62,0,0,0,26.17-20.72,111.65,111.65,0,0,0,18-28.29c1-2.16,2.21-4.35,2.3-6.86,4.13.53,7.89,2.31,11.8,3.54,11.15,3.52,22.18,7.42,33.37,10.81,5,1.51,10.06,2.65,14.9,4.57a55.55,55.55,0,0,1,17,10.2c2.51,2.27,5.2,4.44,7.54,6.79a51.63,51.63,0,0,1,8.68,11.69,82.79,82.79,0,0,1,8.35,23.56c1.33,6.72,1,13.52,1,20.31,0,4.25-.47,8.59.24,12.73.82,4.78.5,9.52.75,14.27a15.19,15.19,0,0,1-.1,1.64c-.44.07-.82.33-.82.74q0,10.25,0,20.47a1,1,0,0,0,1,1.06c1,1.53.33,3.29.69,4.9Z"/><path class="cls-2" d="M1163.28,311.29a3.36,3.36,0,0,1,3.33-.86c3.23,1.43,6.84,1.65,10,3.3-.25,5.27.77,10.39,1.46,15.58.62,4.62,1.23,9.26,1.68,13.9.44,4.39,1.24,8.73,1.65,13.1s1.4,8.73,1.6,13.08,2.68,8.28,1.81,12.7c1.54,3,1.23,6.33,1.44,9.4.55,8.13,0,16.3,1,24.44.51,4.56.15,9.16.65,13.78.6,5.47,1.7,11,1,16.6H998.56a50.17,50.17,0,0,1,.91-13.74,53.08,53.08,0,0,0,1.57-13.14,4.2,4.2,0,0,1,0-1.23c1.28-4.29,1.21-8.76,1.5-13.14.24-3.77.61-7.59,1.17-11.25.76-5,1.32-10,2.07-15,.69-4.63.23-9.41.85-14.15.41-3.16.88-6.38,1.18-9.59.22-2.35.13-4.84.75-7.14a61.76,61.76,0,0,0,1.42-10.26c.31-3.07.74-6.14,1.07-9.2.54-4.91,1.72-9.75,1.43-14.75,3.21-1.58,6.71-2.33,10.12-3.27.85-.23,2.48-1,3.14.75,2.88,8.79,5.69,17.6,8.68,26.35,1.1,3.24,1.55,6.76,3.74,9.57a61.62,61.62,0,0,0,17,15.51c9.16,5.46,18.85,8.62,29.53,8.72,1.64,0,3.3.06,4.94,0,8.43-.38,16.89.65,25.33-.76a72.39,72.39,0,0,0,17.8-5.44c9.11-4.1,16.74-10.29,23.48-17.62a4.5,4.5,0,0,0,1.4-2.38c1.13-6.14,2.2-12.31,3.38-18.44.42-2.21.61-4.47,1.12-6.68C1162.79,317.2,1163.8,314.32,1163.28,311.29Z"/><path class="cls-3" d="M1012.51,313.73c.29,5-.89,9.84-1.43,14.75-.33,3.06-.76,6.13-1.07,9.2a61.76,61.76,0,0,1-1.42,10.26c-.62,2.3-.53,4.79-.75,7.14-.3,3.21-.77,6.43-1.18,9.59-.62,4.74-.16,9.52-.85,14.15-.75,5-1.31,10-2.07,15-.56,3.66-.93,7.48-1.17,11.25-.29,4.38-.22,8.85-1.5,13.14a4.2,4.2,0,0,0,0,1.23,53.08,53.08,0,0,1-1.57,13.14,50.17,50.17,0,0,0-.91,13.74H939.24c.39-5.79,1.39-11.49,2.31-17.21.62-3.85,1.31-7.71,1.7-11.59s1.55-7.37,2.1-11.11c.39-2.64.9-5.36,1.11-8,.56-7.16,2.55-14.08,3.25-21.15.77-7.78,4.22-14.63,6.21-22,.41-1.5,1.56-2.78,2.24-4.22,3.09-6.49,6.77-12.58,12-17.59A54.8,54.8,0,0,1,992,320.16C998.81,318,1005.5,315.38,1012.51,313.73Z"/><path class="cls-3" d="M1188.88,446.31c.66-5.59-.44-11.13-1-16.6-.5-4.62-.14-9.22-.65-13.78-.93-8.14-.41-16.31-1-24.44-.21-3.07.1-6.44-1.44-9.4.87-4.42-1.61-8.36-1.81-12.7s-1.19-8.69-1.6-13.08-1.21-8.71-1.65-13.1c-.45-4.64-1.06-9.28-1.68-13.9-.69-5.19-1.71-10.31-1.46-15.58,5.24,1.46,10.38,3.28,15.6,4.75a66.51,66.51,0,0,1,18.56,8.26c8,5.21,14,12.24,18.68,20.47a72,72,0,0,1,8.16,23.64c.89,5.21,1.23,10.42,1.69,15.65.43,4.84.63,9.71,1.29,14.55.45,3.32,1.25,6.69,1,10.1-.19,2.89.71,5.64,1,8.47.58,5.51,1.25,11,1.58,16.56.2,3.38,1,6.71.72,10.13Z"/><path class="cls-4" d="M1040.48,305.53c-9-3.09-15.42-8.74-18-18-5.08.7-9.86,1.32-14.45-.31a26.9,26.9,0,0,1-14-10.65,16.59,16.59,0,0,1-2-5.26c-.49-1.89-.68-2-2.8-1.56-2.44.47-4.91.15-7.37.25a2.82,2.82,0,0,1-2.11-1.1,43.63,43.63,0,0,0-7.43-5.7c-5.35-3.34-6.8-8.86-8.07-14.43-.25-1.08.41-2.37.66-3.56.51-2.36.44-3.13-1.42-3.91-2.06-.87-3.64-2.35-5.42-3.56a16.19,16.19,0,0,1-3.88-3.64c-2.83-3.81-5.63-7.66-8.11-11.71a12.62,12.62,0,0,1-1.75-7c.18-5.32-.42-10.63.44-16a6.62,6.62,0,0,0-2.22-5.88c-1.64-1.42-3.3-2.89-4.09-5-.23-.63-.8-1.28-.73-1.87.32-2.74-1.08-5-1.87-7.44a32.5,32.5,0,0,1,2.5-26.65c1.54-2.72,1.18-5.53.62-8.36a39,39,0,0,1-1.2-7.2,41.66,41.66,0,0,1,7.87-25.14c1.67-2.36,2.26-4.37,1.13-7.08-2.1-5-.12-9.59,2.27-13.91A22.1,22.1,0,0,1,960.48,81c1.6-.65,3.27,0,5-.88-.43-2.82-1.64-5.53-1.6-8.51.1-7.47,3.22-13,9.82-16.6,3.57-1.94,7.09-4,10.61-6a4.6,4.6,0,0,0,2.19-2.61c1.46-3.77,2.89-7.55,5.28-11a19.61,19.61,0,0,1,8.89-6.8c2.61-1.09,5.4-1.74,8.07-2.66a16.13,16.13,0,0,0,7.12-4.53,32.31,32.31,0,0,1,12.46-9,33.23,33.23,0,0,0,6.05-3.36c5.49-3.71,11.51-4.28,17.93-3a30,30,0,0,0,16.89-1.66,41.71,41.71,0,0,1,24.4-1.89c3.7.77,7.48,1,11.12,2.15a8.7,8.7,0,0,0,7.14-1c4.61-3,9.82-2.9,14.89-3.58a7.79,7.79,0,0,1,2.75.62C1134.67,2,1139.66,3.55,1144,6.9a24.69,24.69,0,0,1,4.84,4.9,4.07,4.07,0,0,0,4.16,2,11.84,11.84,0,0,1,9.12,2.78,5.84,5.84,0,0,0,4.13,1.34c2.61-.09,5.22.08,7.83,0a12,12,0,0,1,8.36,2.6c3.28,2.63,6.71,5.08,9.2,8.63a15.93,15.93,0,0,1,2.91,6.62,5.1,5.1,0,0,0,2,3.37c1.56,1.3,3.36,2.31,4.32,4.24.6,1.2,1.8,1,2.91,1a27.32,27.32,0,0,1,13.5,2.56c7.69,3.48,13.61,9.5,13.58,19.47a20.22,20.22,0,0,0,2.4,10.55c1.62,2.84,1.18,6.09.55,9.19-.21,1.06-.76,2-1.06,3.07-.57,2-.31,2.37,1.89,2.94a9.4,9.4,0,0,1,5.26,2.86,14.28,14.28,0,0,0,2.88,2.27,19.83,19.83,0,0,1,7.38,9.39c1,2.58.35,5.14.53,7.7a14.16,14.16,0,0,1-.82,6.43,17.36,17.36,0,0,1-2.83,4.44c-2.17,2.68-2,5.22.38,7.63,6.38,6.41,7.16,14.11,4.83,22.3-1,3.67-3.55,6.69-6.12,9.5a3.07,3.07,0,0,0-.69,3.62c.82,2.38,1.85,4.74,1.92,7.4a20.56,20.56,0,0,1-6,15.1,9.53,9.53,0,0,0-2.63,4.05,5.5,5.5,0,0,0-.17,2.38,39.32,39.32,0,0,1-.84,17.38,46.81,46.81,0,0,1-10,17.87c-.89,1-1.93,2-2.92,2.9a7.58,7.58,0,0,0-2.2,3.77,43.39,43.39,0,0,1-13.82,22.12,22,22,0,0,1-13.71,5.44c-1.63.08-1.91.62-2.17,2.12-1.49,8.53-6,14.59-14.53,17.35-2,.64-4,0-6,1-.94.48-1.45.74-1.7,1.83-.72,3.06-2.45,5.68-4.09,8.31a15.16,15.16,0,0,1-5.38,4.93c-3.38,2-6.63,4.34-10.83,4.26a13.3,13.3,0,0,1-2.38-.41c-4.6-1.73-9.06-4-13.78-5.16-5.34-1.37-7.54-5.36-8.53-9.73a75.76,75.76,0,0,1-1.83-16.84c0-4.53,0-9.06,0-13.59,0-2.19-.68-4.81.28-6.45s3.8-2.21,5.82-3.22c10.61-5.35,20.67-11.46,28.41-20.77a45.46,45.46,0,0,0,7.53-13.64,92.77,92.77,0,0,0,4.09-14.53,3.83,3.83,0,0,1,3.33-3.34,17.6,17.6,0,0,0,8.76-5.47,58.41,58.41,0,0,0,8.41-11.81c2.16-3.88,3.1-8.19,4.12-12.44,1.49-6.22-2-15.13-7.23-18.71A7.35,7.35,0,0,0,1184,149c-1.29-.12-1.47,1.33-2.07,2.18a30.7,30.7,0,0,0-2.46,3.22c-.74,1.39-1.82,1.44-2.47.14-.56-1.13-1.68-1.86-2-3-.7-2.11-2.17-4-1.52-6.49,1.48-5.64,2.76-11.35,4.18-17s-.77-9.39-4.47-12.39c-4.46-3.61-9.87-5.7-15.49-7.19-4.72-1.26-9.48-.61-14.22-.78s-9.32.94-13.88,2.06a34.84,34.84,0,0,1-4.62,1.19c-8.1.79-15.54-.75-21.91-6.26-2.7-2.33-6.15-3.1-9.61-3.56-3.93-.52-7.48.85-10.73,2.82-6.88,4.19-14.49,4.3-22,3.58a60.91,60.91,0,0,1-16.62-4c-4-1.59-7.12-.21-10,2.16a27.9,27.9,0,0,0-6.23,7c-2.19,3.64-4.94,7-5.67,11.37-.51,3-1.92,6.13-1.17,9.1.69,2.73.48,5.38.68,8.06.25,3.19-1.17,5.7-3.18,8-2.42,2.82-5.54,4.57-8.69,6.31a22.12,22.12,0,0,1-3.79-4.45c-1.21-1.75-1.67-1.66-3.76-.64s-3.2,2.73-4.6,4.4c-3.11,3.71-2,8.26-2.82,12.4-.32,1.7.38,3.62.77,5.4,1,4.74,3.44,8.91,5.74,13.1a37.57,37.57,0,0,0,6.67,8.11,19.17,19.17,0,0,0,9.3,5.3c1.28.29,1.61,1.09,1.89,2.28,1,4.26,2,8.53,3.33,12.71a44.24,44.24,0,0,0,12.54,20.34c1.92,1.72,3.75,3.5,5.83,5.07a122,122,0,0,0,21.3,12.84c3.4,1.6,3.32,1.5,3.18,5.22-.15,4.12-.09,8.24,0,12.36a115.52,115.52,0,0,1-1.61,20.59,12.67,12.67,0,0,1-8.46,10.39c-3.44,1.36-7,2.37-10.48,3.74A13.82,13.82,0,0,1,1040.48,305.53Z"/><path class="cls-5" d="M1040.48,305.53a13.82,13.82,0,0,0,4.31-.86c3.45-1.37,7-2.38,10.48-3.74a12.67,12.67,0,0,0,8.46-10.39,115.52,115.52,0,0,0,1.61-20.59c-.06-4.12-.12-8.24,0-12.36.14-3.72.22-3.62-3.18-5.22a122,122,0,0,1-21.3-12.84c-2.08-1.57-3.91-3.35-5.83-5.07a44.24,44.24,0,0,1-12.54-20.34c-1.29-4.18-2.32-8.45-3.33-12.71-.28-1.19-.61-2-1.89-2.28a19.17,19.17,0,0,1-9.3-5.3,37.57,37.57,0,0,1-6.67-8.11c-2.3-4.19-4.7-8.36-5.74-13.1-.39-1.78-1.09-3.7-.77-5.4.79-4.14-.29-8.69,2.82-12.4,1.4-1.67,2.57-3.42,4.6-4.4s2.55-1.11,3.76.64a22.12,22.12,0,0,0,3.79,4.45c3.15-1.74,6.27-3.49,8.69-6.31,2-2.33,3.43-4.84,3.18-8-.2-2.68,0-5.33-.68-8.06-.75-3,.66-6.06,1.17-9.1.73-4.36,3.48-7.73,5.67-11.37a27.9,27.9,0,0,1,6.23-7c2.87-2.37,6-3.75,10-2.16a60.91,60.91,0,0,0,16.62,4c7.53.72,15.14.61,22-3.58,3.25-2,6.8-3.34,10.73-2.82,3.46.46,6.91,1.23,9.61,3.56,6.37,5.51,13.81,7,21.91,6.26a34.84,34.84,0,0,0,4.62-1.19c4.56-1.12,9.13-2.24,13.88-2.06s9.5-.48,14.22.78c5.62,1.49,11,3.58,15.49,7.19,3.7,3,5.86,6.81,4.47,12.39s-2.7,11.37-4.18,17c-.65,2.47.82,4.38,1.52,6.49.37,1.13,1.49,1.86,2,3,.65,1.3,1.73,1.25,2.47-.14a30.7,30.7,0,0,1,2.46-3.22c.6-.85.78-2.3,2.07-2.18a7.35,7.35,0,0,1,3.3,1.26c5.26,3.58,8.72,12.49,7.23,18.71-1,4.25-2,8.56-4.12,12.44a58.41,58.41,0,0,1-8.41,11.81,17.6,17.6,0,0,1-8.76,5.47,3.83,3.83,0,0,0-3.33,3.34,92.77,92.77,0,0,1-4.09,14.53,45.46,45.46,0,0,1-7.53,13.64c-7.74,9.31-17.8,15.42-28.41,20.77-2,1-4.8,1.48-5.82,3.22s-.28,4.26-.28,6.45c0,4.53,0,9.06,0,13.59a75.76,75.76,0,0,0,1.83,16.84c1,4.37,3.19,8.36,8.53,9.73,4.72,1.21,9.18,3.43,13.78,5.16a13.3,13.3,0,0,0,2.38.41c4.29,1.71,8.3,4.16,13,4.91.52,3-.49,5.91-1.14,8.74-.51,2.21-.7,4.47-1.12,6.68-1.18,6.13-2.25,12.3-3.38,18.44a4.5,4.5,0,0,1-1.4,2.38c-6.74,7.33-14.37,13.52-23.48,17.62a72.39,72.39,0,0,1-17.8,5.44c-8.44,1.41-16.9.38-25.33.76-1.64.07-3.3,0-4.94,0-10.68-.1-20.37-3.26-29.53-8.72a61.62,61.62,0,0,1-17-15.51c-2.19-2.81-2.64-6.33-3.74-9.57-3-8.75-5.8-17.56-8.68-26.35a5.59,5.59,0,0,0,2-.06C1032,309.31,1036.64,308.29,1040.48,305.53Z"/><path class="cls-6" d="M721.69,199.89c-.14,2.37-.14,2.37-3.12,2.87a2.07,2.07,0,0,1,1.5,2.78c-2,7-3.82,14.18-8.32,20.07a69.76,69.76,0,0,1-9.6,10.34c-5.84,5.11-12.6,8.56-19.06,12.58a30.56,30.56,0,0,1-5.45,2.4,4,4,0,0,0-2.88,4.3c.11,4.94-.29,9.91.15,14.81.26,2.95.93,5.9.62,8.84s.56,5.94,1,8.81c.75,4.53,2.86,8.43,7.95,9.86,6.72,1.9,13.27,4.36,20,6.39,7.94,2.4,16,4.6,23.69,7.7,1.15.46,2.93-.63,3.49,1.29-1,3.22-3.74,5.29-5.86,7.59-6.37,6.89-12.94,13.61-20.58,19.2a167.1,167.1,0,0,1-17.4,11.49A159.88,159.88,0,0,1,649,366.14a3.47,3.47,0,0,1-1.57.19c-5.48-1.5-11-2.85-16.4-4.62a141.52,141.52,0,0,1-23.66-10.35,119.56,119.56,0,0,1-23.67-16.53c-7.6-7-15.23-14-21-22.78.68,0,1.54.17,2-.16,4-2.84,8.79-3.55,13.35-4.69,2.18-.55,4.3-1.39,6.4-2,7-2.18,13.95-4.75,21.18-6.41a13.25,13.25,0,0,0,10.55-13.39c0-5.32.65-10.57,1.12-15.81.4-4.46.4-8.91.64-13.36.13-2.62-1-4.14-3.38-5.19-6.34-2.78-12.21-6.47-18.23-9.87a30.75,30.75,0,0,1-4.69-3.81c-4.27-3.65-8.62-7.33-11.58-12.23-1.38-2.27-2.5-4.69-3.77-7-3.09-5.74-3.62-12.33-6.11-18.28a4.18,4.18,0,0,1,.09-1.63c.69.13,1.48.26,1.49-.74a22.39,22.39,0,0,0-.28-3.66c-.38-2.4-1.19-4.78-1.25-7.18-.32-12.69-.45-25.36,1.4-38a87.41,87.41,0,0,1,5.88-22.29c3.94-9.13,9.81-16.53,18.93-21a30.71,30.71,0,0,0,5.23-3.09c4.39-3.38,8.78-6.75,12.43-11.33,2.25,4.26,3.87,8.42,6.07,12.31a79,79,0,0,0,22.51,25,66.35,66.35,0,0,0,28.8,12.21c4,.64,8.24,1.7,12.49-.19-.63-1.33-1.18-2.71-1.91-4-2.64-4.61-4.35-9.6-6.14-14.57a6.8,6.8,0,0,1-.39-3.21l.12-.13c4.59,4.24,9.31,8.35,14.24,12.19a110.24,110.24,0,0,1,12.91,11.32c5.73,6.13,10.19,13,12.54,21.15.83,2.87,1.09,5.85,2,8.77,3.14-7.57,4.36-15.54,5.78-23.52.4,2.2.1,4.41.46,6.5,1.43,8.46-.35,16.82-.66,25.22a38,38,0,0,1-.83,8.06c-.88,3.48-1.11,7.12-1.94,10.64C719.89,199.88,720.78,200,721.69,199.89Z"/><path class="cls-7" d="M136.13,292.21c-2.6-4.26-6.14-7.79-9.17-11.73a85.62,85.62,0,0,1-15.29-30.6c-1-4-2.22-8.18-2-12.41.34-5.16-1.06-9.92-2.62-14.69a119.16,119.16,0,0,1-4.19-19,115,115,0,0,1-1.66-15.37c.57-5.65-.76-11.28-.07-16.95.3-2.42-.32-5.06.37-7.33,1.51-5-.65-9.69-.27-14.53-1.53-1.95,0-4.57-1.45-6.53,0-12.76-.23-25.52,0-38.27a58.87,58.87,0,0,1,5.14-22c2.44-5.71,4.5-11.61,7.49-17.09a98.84,98.84,0,0,1,9.78-14.51,16.57,16.57,0,0,1,6.1-4.67C138,42,147.83,37.93,157.72,34c8.33-3.34,17-3.44,25.64-1.66,3.14.65,6.26.34,9.39.56a43.18,43.18,0,0,1,6.06.6c2.77.57,5.59,1.3,8.48.89,1.59-.22,2.89.65,4.35.9,8,1.38,15.64,4.12,23.36,6.58,8.81,2.8,15.39,8.21,20.52,15.86,4.19,6.26,6.8,13.19,9.44,20.12.53,1.4,1.32,2.61,1.91,3.94,2.61,5.87,3.6,12.12,5,18.3a35.56,35.56,0,0,1,.8,7.67q0,17.07-.07,34.15c0,.95-.16,1.9-.25,2.84a2,2,0,0,0-1.11,1.63c.06,3.56-.73,7-.84,10.56-.25,8.23-.25,16.47-.18,24.7,0,3.42-1.33,6.7-.77,10.14-.84,6-3.49,11.67-3.42,17.86a2.18,2.18,0,0,1-.06.81c-2.51,6.18-1.41,12.68-1.5,19A52,52,0,0,1,261.9,245c-1,3.16-.71,6.42-1.5,9.61a113.37,113.37,0,0,0-2.76,12.65c-.51,3.83-2.86,7.24-4.84,10.61-3.45,5.86-7.63,11.23-11.47,16.83-2.12,1.14-3,3.43-4.65,5-7,6.7-14.63,12.62-22.06,18.8-6.81,5.66-15,6.25-23.09,7.37-3.36-1.23-6.95-.47-10.43-1.38-6.32-1.66-12.4-3.71-17.64-7.72a159.29,159.29,0,0,1-13-11.2C145.71,301.1,140.91,296.67,136.13,292.21Zm49-85.13a44.61,44.61,0,0,0-8.14,1.16c-7,1.25-12.39,4.62-15.11,11.48a30,30,0,0,0-1.82,5.36,13.86,13.86,0,0,0,1.8,10.55c2.61,4,6.34,6.31,10.57,8a36.73,36.73,0,0,0,22.38,1.62,29.47,29.47,0,0,0,12.08-5.57c4-3.31,6.37-7.61,5.58-12.91-1.21-8.12-4.88-14.6-13.2-17.45a37.13,37.13,0,0,0-12.41-2,9.23,9.23,0,0,1,4.3-3.06,35.55,35.55,0,0,1,16.89-2.75,32.89,32.89,0,0,1,15.24,5.09c6.08,3.8,10.34,9.22,13.86,15.32,2.33,4,6.62,4,9,0a21.12,21.12,0,0,0,1.71-3.71c5.23-14.77,10.49-29.54,15.31-44.47a20.29,20.29,0,0,0,1.14-9.62,48.25,48.25,0,0,1-.58-9c.14-7.4-.59-14.75-1.07-22.11a76.6,76.6,0,0,0-1.78-13.72A197.62,197.62,0,0,0,253,94.21a12.75,12.75,0,0,0-4.51-6.14,40.17,40.17,0,0,0-7.41-4.24A126.55,126.55,0,0,0,216.88,77c-10.76-2.13-21.64-2.09-32.48-2.91-2-.15-4,.49-6.06.5a143,143,0,0,0-20.76,1.67A102.23,102.23,0,0,0,132.11,83c-6.39,2.76-12,6.29-13.58,13.84a19,19,0,0,1-1.09,2.61,120.28,120.28,0,0,0-6.85,24.94c-1.17,7.93-1.27,16-1.81,24-.3,4.49,0,9-.62,13.48a25.47,25.47,0,0,0,.8,11.72c3.36,10.1,6.54,20.26,10.28,30.24,2.17,5.81,4.35,11.61,6.75,17.33,1.32,3.13,3,4,6,3.57,2.11-.3,2.82-2,3.68-3.49,4-7.16,9.3-13.07,16.84-16.72,6-2.91,12.31-3.55,18.87-3A26.6,26.6,0,0,1,185.15,207.08Z"/><path class="cls-8" d="M721.69,199.89c-.91.09-1.8,0-1.52-1.21.83-3.52,1.06-7.16,1.94-10.64a38,38,0,0,0,.83-8.06c.31-8.4,2.09-16.76.66-25.22-.36-2.09-.06-4.3-.46-6.5-1.42,8-2.64,16-5.78,23.52-.94-2.92-1.2-5.9-2-8.77-2.35-8.17-6.81-15-12.54-21.15a110.24,110.24,0,0,0-12.91-11.32c-4.93-3.84-9.65-7.95-14.24-12.19l-.39-.65c-.12.15-.24.29-.37.43l.64.35a6.8,6.8,0,0,0,.39,3.21c1.79,5,3.5,10,6.14,14.57.73,1.27,1.28,2.65,1.91,4-4.25,1.89-8.51.83-12.49.19a66.35,66.35,0,0,1-28.8-12.21,79,79,0,0,1-22.51-25c-2.2-3.89-3.82-8-6.07-12.31-3.65,4.58-8,8-12.43,11.33a30.71,30.71,0,0,1-5.23,3.09c-9.12,4.47-15,11.87-18.93,21a87.41,87.41,0,0,0-5.88,22.29c-1.85,12.63-1.72,25.3-1.4,38,.06,2.4.87,4.78,1.25,7.18a22.39,22.39,0,0,1,.28,3.66c0,1-.8.87-1.49.74a1.55,1.55,0,0,0-.16-.63,6.41,6.41,0,0,0-.36-2.39c-3.18-9-5.67-18.24-8.06-27.5-1.69-6.52-2.88-13.16-4.88-19.6,0-.27.16-.59.07-.81-1.31-3.41-1.6-7-2.33-10.57-1.57-7.55-3.85-15-3.52-22.88.3-7.26-.18-14.55.22-21.8.38-7,.46-14.14,2.49-21,3.15-10.64,8.15-20.08,17.56-26.63a36,36,0,0,1,11.55-4.85,74.18,74.18,0,0,1,11.93-2.41c7.05-.66,14.26-1.45,20.81,2.3,1.71,1,2.35.41,3.21-.91a48.64,48.64,0,0,1,11.39-12.72c5.16-3.86,10.61-7,16.9-8.6a27.44,27.44,0,0,1,8.06-.92,35.22,35.22,0,0,0,4.11,0c9-.68,17,2.21,25.15,5.5,7.66,3.07,14.42,7.44,21.06,12.06a78.43,78.43,0,0,1,16.84,16.7,93.49,93.49,0,0,1,10.12,16.15c4.38,8.92,7,18.4,8.89,28.09a16.8,16.8,0,0,1,.14,3.69,36.61,36.61,0,0,0,1.33,11.3,14.78,14.78,0,0,1,.31,4.06c0,6.86,0,13.72,0,20.58,0,5.07-1.46,9.93-2.19,14.89a5.43,5.43,0,0,0,.08,1.2,19.4,19.4,0,0,0-1,2.65c-2.77,12.67-7.59,24.59-13,36.33-1.22,2.68-2.87,5.18-3.7,8A2.37,2.37,0,0,0,721.69,199.89Z"/><path class="cls-9" d="M562.68,312.05c5.75,8.74,13.38,15.8,21,22.78a119.56,119.56,0,0,0,23.67,16.53A141.52,141.52,0,0,0,631,361.71c5.39,1.77,10.92,3.12,16.4,4.62a3.47,3.47,0,0,0,1.57-.19,159.88,159.88,0,0,0,38.86-14.93,167.1,167.1,0,0,0,17.4-11.49c7.64-5.59,14.21-12.31,20.58-19.2,2.12-2.3,4.82-4.37,5.86-7.59,2.4-.41,4.41.8,6.56,1.52,6.68,2.21,13.52,3.94,19.74,7.41a49.25,49.25,0,0,1,10.13,7.26c4,3.85,8.09,7.73,10.92,12.62a80,80,0,0,1,9.43,23.61c.79,3.79,1.15,7.68,1.7,11.52a1.41,1.41,0,0,1,0,.41c-.24,1.24,1.55,74.58.58,75.66-1.11,1.24-2.86.53-4.3.53-18.81,0-37.65-.6-56.43.2-24.52,1-49,.35-73.55.57-24.71.21-49.43.05-74.14.05H508.58c-.83,0-1.65,0-2.47,0-4.39-.25-4.89-73.17-3.84-77.36a5.69,5.69,0,0,0,.27-1.57c-.37-8.83,3.73-16.6,5.86-24.84,3.37-5.47,6.32-11.14,10.65-16.07A59.07,59.07,0,0,1,537.72,320c4.32-2.12,9-3.16,13.52-4.67A73.07,73.07,0,0,1,562.68,312.05Z"/><path class="cls-6" d="M136.13,292.21c4.78,4.46,9.58,8.89,14.32,13.39a159.29,159.29,0,0,0,13,11.2c5.24,4,11.32,6.06,17.64,7.72,3.48.91,7.07.15,10.43,1.38,8.12-1.12,16.28-1.71,23.09-7.37,7.43-6.18,15.07-12.1,22.06-18.8,1.66-1.6,2.53-3.89,4.65-5,3.5,1.11,7.06,2.06,10.48,3.39a27.06,27.06,0,0,0,4.69.94c-.09,2.51-1.33,4.7-2.3,6.86a111.65,111.65,0,0,1-18,28.29A99.62,99.62,0,0,1,210,354.9c-6.78,3.86-14,6.39-21.4,8.67a6.26,6.26,0,0,1-3.21.23,92.05,92.05,0,0,1-35.84-16.5,87.2,87.2,0,0,1-26.81-34.56c-2-4.51-4-9-5-13.86a25.68,25.68,0,0,0,3.88-.68c3.23-1,6.37-2.35,9.64-3.2A10.38,10.38,0,0,0,136.13,292.21Z"/><path class="cls-6" d="M269.42,191.73c-.56-3.44.8-6.72.77-10.14-.07-8.23-.07-16.47.18-24.7.11-3.51.9-7,.84-10.56a2,2,0,0,1,1.11-1.63c3.23-2.28,5-2.21,7.83.53,2.22,2.13,4.58,4.11,5.2,7.49.48,2.57.68,16.08,0,18.61a57.54,57.54,0,0,1-8.47,17.8,30.87,30.87,0,0,1-4.11,4.49c-1.17,1.16-1.86.78-2.54-1.14A1,1,0,0,0,269.42,191.73Z"/><path class="cls-6" d="M556.8,148c2,6.44,3.19,13.08,4.88,19.6,2.39,9.26,4.88,18.48,8.06,27.5a6.41,6.41,0,0,1,.36,2.39c-.61-.17-.8.79-1.72.36-6.84-3.19-11.54-8.62-15.38-14.83-2.49-4-3.52-8.74-5.11-13.18-1.69-4.69-.49-9.19.9-13.65a5.91,5.91,0,0,1,1.85-3.06C552.75,151.51,554,148.79,556.8,148Z"/><path class="cls-6" d="M99.83,143.1c1.45,2-.08,4.58,1.45,6.53-.38,4.84,1.78,9.57.27,14.53-.69,2.27-.07,4.91-.37,7.33-.69,5.67.64,11.3.07,16.95-.4,0-.94-.08-1.19.13-1.6,1.44-2.65.43-3.82-.67-1.81-1.71-2.77-4-3.81-6.09-.79-1.61-1.58-3.33-2.31-5-1-2.33-2.25-4.6-1.93-7.24.16-1.32-.65-2.32-1-3.43a15.11,15.11,0,0,1,.14-9.83c1-2.67,1.46-5.53,3.16-8C92.85,144.83,95.51,142.61,99.83,143.1Z"/><path class="cls-6" d="M723.34,197.47c.83-2.86,2.48-5.36,3.7-8,5.36-11.74,10.18-23.66,13-36.33a19.4,19.4,0,0,1,1-2.65,9.58,9.58,0,0,1,5.42,8.63c.2,3.54,0,7.1.05,10.65a10.28,10.28,0,0,1-.77,3.88,51.6,51.6,0,0,1-11.28,18.16A31.9,31.9,0,0,1,728,196.5,7,7,0,0,1,723.34,197.47Z"/><path class="cls-10" d="M360.18,441.41a1,1,0,0,1-1-1.06q0-10.23,0-20.47c0-.41.38-.67.82-.74Z"/><path class="cls-6" d="M185.15,207.08a26.6,26.6,0,0,0-13.79-5.52c-6.56-.57-12.86.07-18.87,3-7.54,3.65-12.8,9.56-16.84,16.72-.86,1.53-1.57,3.19-3.68,3.49-3,.43-4.66-.44-6-3.57-2.4-5.72-4.58-11.52-6.75-17.33-3.74-10-6.92-20.14-10.28-30.24a25.47,25.47,0,0,1-.8-11.72c.62-4.51.32-9,.62-13.48.54-8,.64-16.1,1.81-24a120.28,120.28,0,0,1,6.85-24.94,19,19,0,0,0,1.09-2.61c1.56-7.55,7.19-11.08,13.58-13.84a102.23,102.23,0,0,1,25.47-6.75,143,143,0,0,1,20.76-1.67c2,0,4.07-.65,6.06-.5,10.84.82,21.72.78,32.48,2.91a126.55,126.55,0,0,1,24.2,6.85,40.17,40.17,0,0,1,7.41,4.24A12.75,12.75,0,0,1,253,94.21a197.62,197.62,0,0,1,7.88,25.12,76.6,76.6,0,0,1,1.78,13.72c.48,7.36,1.21,14.71,1.07,22.11a48.25,48.25,0,0,0,.58,9,20.29,20.29,0,0,1-1.14,9.62c-4.82,14.93-10.08,29.7-15.31,44.47a21.12,21.12,0,0,1-1.71,3.71c-2.36,4-6.65,4-9,0-3.52-6.1-7.78-11.52-13.86-15.32a32.89,32.89,0,0,0-15.24-5.09,35.55,35.55,0,0,0-16.89,2.75,9.23,9.23,0,0,0-4.3,3.06,37.13,37.13,0,0,1,12.41,2c8.32,2.85,12,9.33,13.2,17.45.79,5.3-1.55,9.6-5.58,12.91a29.47,29.47,0,0,1-12.08,5.57,36.73,36.73,0,0,1-22.38-1.62c-4.23-1.67-8-4-10.57-8a13.86,13.86,0,0,1-1.8-10.55,30,30,0,0,1,1.82-5.36c2.72-6.86,8.14-10.23,15.11-11.48A44.61,44.61,0,0,1,185.15,207.08Z"/><path class="cls-6" d="M675.52,118.48l-.64-.35c.13-.14.25-.28.37-.43l.39.65Z"/></g></g></svg>